<!DOCTYPE svg PUBLIC "-//W3C//DTD SVG 1.1//EN" "http://www.w3.org/Graphics/SVG/1.1/DTD/svg11.dtd">
<!-- Uploaded to: SVG Repo, www.svgrepo.com, Transformed by: SVG Repo Mixer Tools -->
<svg width="800px" height="800px" viewBox="0 0 24 24" fill="none" xmlns="http://www.w3.org/2000/svg">
<g id="SVGRepo_bgCarrier" stroke-width="0"/>
<g id="SVGRepo_tracerCarrier" stroke-linecap="round" stroke-linejoin="round"/>
<g id="SVGRepo_iconCarrier"> <path fill-rule="evenodd" clip-rule="evenodd" d="M22 10.7602V17.5967C22 19.4377 20.5076 20.93 18.6667 20.93H17.4444C16.8922 20.93 16.4444 20.4823 16.4444 19.93V19.7078C16.4444 19.1555 16.8922 18.7078 17.4444 18.7078H18.6667C19.2803 18.7078 19.7778 18.2104 19.7778 17.5967V10.7602C19.7778 10.4141 19.6165 10.0878 19.3416 9.87755L12.6749 4.77951C12.2765 4.47486 11.7235 4.47485 11.3251 4.77951L4.65839 9.87755C4.38348 10.0878 4.22222 10.4141 4.22222 10.7602V17.5967C4.22222 18.2104 4.71968 18.7078 5.33333 18.7078H6.55556C7.10784 18.7078 7.55556 19.1555 7.55556 19.7078V19.93C7.55556 20.4823 7.10784 20.93 6.55556 20.93H5.33333C3.49239 20.93 2 19.4377 2 17.5967V10.7602C2 9.72193 2.48377 8.74299 3.3085 8.11231L9.97517 3.01427C11.1704 2.1003 12.8297 2.10031 14.0248 3.01427L20.6915 8.11231C21.5162 8.74299 22 9.72194 22 10.7602ZM11.8889 11.1523H12.1111C13.768 11.1523 15.1111 12.4954 15.1111 14.1523V17.7078C15.1111 19.3647 13.768 20.7078 12.1111 20.7078H11.8889C10.232 20.7078 8.88889 19.3647 8.88889 17.7078V14.1523C8.88889 12.4954 10.232 11.1523 11.8889 11.1523ZM13.1111 14.1523C13.1111 13.6 12.6634 13.1523 12.1111 13.1523H11.8889C11.3366 13.1523 10.8889 13.6 10.8889 14.1523V17.7078C10.8889 18.2601 11.3366 18.7078 11.8889 18.7078H12.1111C12.6634 18.7078 13.1111 18.2601 13.1111 17.7078V14.1523Z" fill="#e6edfe"/> </g>
</svg>